<svg xmlns="http://www.w3.org/2000/svg" width="260" height="187" viewBox="0 0 260 187" fill="none"><script xmlns="" src="chrome-extension://hoklmmgfnpapgjgcpechhaamimifchmp/frame_ant/frame_ant.js"/>
<path d="M15.7258 170.779C15.6452 170.921 15.5575 170.992 15.4769 171.07C14.8748 171.667 14.2679 172.26 13.6658 172.855C12.9191 173.595 12.1795 174.344 11.4233 175.076C11.1104 175.377 10.8069 175.688 10.4869 175.982C10.385 176.077 10.385 176.077 10.4798 176.179C10.7358 176.461 11.025 176.712 11.2953 176.98C12.1321 177.812 12.9546 178.658 13.8009 179.478C14.358 180.019 14.9032 180.574 15.4579 181.116C15.5907 181.247 15.7258 181.38 15.8609 181.51C15.9154 181.562 15.9202 181.617 15.8609 181.669C15.8348 181.692 15.8135 181.721 15.7874 181.745C15.356 182.162 14.9411 182.598 14.5073 183.013C14.2537 183.257 13.9977 183.501 13.7488 183.75C13.0471 184.449 12.3502 185.153 11.639 185.846C11.3095 186.166 10.9871 186.49 10.6623 186.81C10.5888 186.81 10.5675 186.746 10.532 186.711C10.2641 186.445 9.97487 186.199 9.68804 185.952C9.43202 185.732 9.2329 185.452 8.98636 185.22C8.42217 184.689 7.89592 184.12 7.33647 183.584C7.01408 183.274 6.68694 182.965 6.36455 182.653C6.02793 182.323 5.71028 181.975 5.36893 181.652C4.92564 181.235 4.53687 180.763 4.0841 180.356C3.17855 179.545 2.35124 178.653 1.48125 177.805C1.01188 177.345 0.547259 176.88 0.0802633 176.418C-0.0240402 176.314 -0.0287813 176.309 0.0778928 176.209C0.727419 175.6 1.30583 174.922 1.98143 174.339C2.05018 174.28 2.11655 174.213 2.18056 174.149C2.90357 173.434 3.62421 172.718 4.34723 171.999C5.02994 171.324 5.70791 170.643 6.39063 169.968C7.41944 168.951 8.45062 167.934 9.48417 166.922C9.83738 166.576 10.1953 166.234 10.5367 165.876C10.6197 165.789 10.6742 165.805 10.7429 165.879C10.8306 165.971 10.9207 166.061 11.0108 166.151C11.5323 166.67 12.0515 167.187 12.573 167.704C13.2628 168.389 13.9526 169.076 14.6425 169.759C14.9435 170.058 15.2469 170.354 15.5527 170.648C15.6025 170.698 15.6665 170.731 15.7187 170.769" fill="#E42620"/>
<path d="M28.9771 171.922C28.0407 171.011 27.1352 170.068 26.1822 169.172C25.6109 168.636 25.0728 168.065 24.5039 167.524C24.1056 167.145 23.724 166.747 23.3352 166.356C23.1361 166.156 22.9346 165.957 22.7307 165.761C22.643 165.678 22.6003 165.68 22.5245 165.756C21.9982 166.273 21.4791 166.796 20.941 167.301C20.346 167.861 19.777 168.451 19.2105 169.041C18.7079 169.565 18.1935 170.08 17.6625 170.577C17.2975 170.921 16.9656 171.3 16.5982 171.642C15.9676 172.23 15.3726 172.851 14.7491 173.446C14.0854 174.079 13.4453 174.74 12.7934 175.387C12.7484 175.432 12.7057 175.482 12.656 175.518C12.3952 175.712 12.2008 175.966 11.9993 176.217C11.9898 176.255 12.0017 176.276 12.0349 176.302C12.1795 176.426 12.3264 176.546 12.4616 176.682C14.0166 178.241 15.5978 179.775 17.141 181.347C17.2548 181.463 17.3781 181.565 17.4966 181.676C17.7004 181.866 17.883 182.079 18.075 182.281C18.2433 182.459 18.4377 182.613 18.6107 182.783C19.7984 183.954 20.9765 185.133 22.1571 186.311C22.278 186.432 22.3965 186.55 22.5197 186.666C22.5553 186.702 22.5956 186.759 22.6525 186.69C22.6383 186.678 22.6359 186.666 22.6478 186.657C22.6525 186.652 22.6596 186.652 22.6667 186.65C22.6335 186.415 22.7189 186.19 22.707 185.958C22.7046 185.903 22.7378 185.858 22.7781 185.834C22.9346 185.742 23.0152 185.576 23.1479 185.464C23.4561 185.206 23.7382 184.922 24.0156 184.632C24.2099 184.429 24.4375 184.26 24.6343 184.059C24.9495 183.739 25.234 183.385 25.5683 183.082C26.2865 182.435 26.9479 181.731 27.6354 181.053C27.6923 180.996 27.7586 180.958 27.825 180.923C27.8558 180.875 27.8748 180.825 27.8819 180.768C27.9174 180.517 27.9578 180.266 27.998 180.017C28.0692 179.571 28.1427 179.126 28.209 178.68C28.3062 178.023 28.3963 177.367 28.4911 176.712C28.5741 176.155 28.6594 175.596 28.7448 175.039C28.8633 174.245 28.9818 173.451 29.1003 172.659C29.1572 172.578 29.1264 172.479 29.1501 172.393C29.2047 172.189 29.1098 172.059 28.97 171.924" fill="#0098CB"/>
<path d="M22.6666 186.652C22.6334 186.417 22.7187 186.192 22.7069 185.959C22.7045 185.905 22.7377 185.86 22.778 185.836C22.9345 185.744 23.0151 185.578 23.1478 185.466C23.456 185.208 23.7404 184.923 24.0154 184.634C24.2098 184.43 24.4374 184.262 24.6341 184.061C24.9494 183.741 25.2339 183.387 25.5681 183.084C26.2864 182.437 26.9478 181.733 27.6352 181.055C27.6921 180.998 27.7585 180.96 27.8249 180.924C27.8509 181.138 27.8154 181.346 27.7727 181.553C27.7466 181.681 27.6589 181.778 27.5499 181.868C27.365 182.02 27.2038 182.2 27.0355 182.368C26.2295 183.169 25.4306 183.978 24.6175 184.769C24.4635 184.919 24.2762 185.042 24.1363 185.206C23.7973 185.604 23.4038 185.945 23.0435 186.322C22.9274 186.443 22.8065 186.561 22.6619 186.652" fill="#008BB5"/>
<path d="M22.6522 186.691C22.6384 186.68 22.6361 186.668 22.6476 186.659C22.6522 186.654 22.6591 186.654 22.6659 186.652C22.6613 186.666 22.6568 186.677 22.6499 186.691" fill="#008BB5"/>
<path d="M259.725 167.718C259.175 167.811 258.623 167.837 258.068 167.749C257.904 167.723 257.741 167.704 257.57 167.681V167.865C257.513 167.913 257.506 167.956 257.58 167.993C257.651 168.332 257.634 168.679 257.651 169.022C257.677 169.57 257.677 170.12 257.689 170.667C257.656 170.665 257.63 170.675 257.634 170.71C257.639 170.743 257.667 170.75 257.696 170.758C257.72 171.428 257.703 172.099 257.731 172.77C257.755 173.32 257.731 173.872 257.731 174.422C257.734 176.428 257.739 178.436 257.741 180.441C257.741 180.486 257.765 180.541 257.698 180.579C257.48 180.346 257.257 180.114 257.039 179.879C256.748 179.566 256.458 179.249 256.169 178.936C255.804 178.538 255.437 178.139 255.072 177.741C254.806 177.452 254.543 177.16 254.275 176.873C253.943 176.52 253.633 176.148 253.296 175.797C253.009 175.499 252.744 175.183 252.459 174.882C252.184 174.593 251.921 174.292 251.651 173.996C251.286 173.595 250.921 173.197 250.558 172.796C250.229 172.433 249.904 172.068 249.574 171.706C249.088 171.17 248.595 170.641 248.119 170.098C247.792 169.724 247.448 169.368 247.135 168.984C246.794 168.565 246.407 168.178 246.047 167.775C245.981 167.702 245.924 167.671 245.812 167.692C245.284 167.797 244.75 167.839 244.212 167.778C243.978 167.752 243.745 167.716 243.496 167.683V168.164C243.44 168.195 243.442 168.223 243.499 168.249C243.506 168.306 243.518 168.361 243.52 168.415C243.541 168.873 243.57 169.333 243.577 169.79C243.598 170.883 243.646 171.978 243.632 173.074C243.62 173.991 243.632 174.908 243.608 175.826C243.586 176.58 243.586 177.336 243.551 178.092C243.494 179.327 243.461 180.562 243.406 181.795C243.361 182.776 243.297 183.755 243.243 184.734C243.221 184.739 243.193 184.739 243.195 184.77C243.195 184.779 243.224 184.786 243.238 184.796C243.188 185.071 243.252 185.36 243.136 185.628C243.198 185.893 243.122 186.152 243.096 186.413C243.136 186.431 243.176 186.42 243.219 186.413C243.482 186.37 243.745 186.334 244.013 186.318C244.547 186.285 245.075 186.339 245.62 186.441C245.594 186.036 245.571 185.644 245.547 185.253C245.568 185.225 245.566 185.196 245.542 185.168C245.526 184.561 245.504 183.954 245.492 183.347C245.483 182.795 245.469 182.245 245.462 181.693C245.447 180.647 245.454 179.602 245.459 178.557C245.464 177.511 245.45 176.466 245.483 175.418C245.502 174.797 245.499 174.176 245.507 173.555C245.507 173.474 245.516 173.391 245.521 173.292C245.604 173.325 245.642 173.377 245.684 173.42C246.36 174.1 247.002 174.811 247.659 175.51C248.029 175.904 248.399 176.3 248.761 176.7C249.167 177.148 249.584 177.582 249.996 178.026C250.167 178.21 250.342 178.393 250.504 178.585C250.729 178.851 250.983 179.088 251.205 179.358C251.388 179.581 251.585 179.792 251.774 180.007C251.921 180.176 252.066 180.346 252.22 180.505C252.412 180.707 252.587 180.925 252.787 181.121C253.007 181.34 253.18 181.607 253.412 181.821C253.429 181.835 253.446 181.849 253.457 181.866C253.593 182.06 253.751 182.236 253.915 182.406C254.183 182.684 254.413 182.994 254.678 183.274C254.944 183.551 255.193 183.848 255.434 184.146C255.558 184.298 255.695 184.436 255.821 184.587C256.01 184.817 256.198 185.049 256.399 185.272C256.558 185.448 256.705 185.635 256.861 185.813C257.023 185.995 257.184 186.178 257.328 186.375C257.366 186.427 257.416 186.465 257.49 186.439C257.805 186.325 258.139 186.325 258.466 186.313C258.798 186.303 259.125 186.353 259.443 186.431C259.545 186.455 259.58 186.46 259.58 186.353C259.58 186.318 259.58 186.282 259.58 186.247C259.592 184.092 259.547 181.939 259.611 179.785C259.626 179.291 259.618 178.796 259.618 178.301C259.618 178.018 259.633 177.736 259.607 177.454C259.637 177.428 259.654 177.4 259.609 177.371C259.642 177.298 259.633 177.22 259.635 177.144C259.654 176.447 259.656 175.75 259.694 175.055C259.708 174.797 259.718 174.536 259.694 174.275C259.73 174.247 259.737 174.221 259.694 174.192C259.701 174.152 259.713 174.112 259.716 174.069C259.742 173.431 259.765 172.794 259.789 172.156C259.813 172.128 259.813 172.102 259.791 172.071C259.832 171.222 259.872 170.373 259.912 169.527C259.882 169.454 259.896 169.383 259.919 169.314C259.962 168.93 259.95 168.543 259.953 168.157C259.953 168.02 259.95 167.88 260 167.747V167.704C259.908 167.695 259.818 167.711 259.727 167.726" fill="white"/>
<path d="M50.2147 185.493C50.2005 185.253 50.1317 185.023 50.1033 184.786C50.044 184.267 49.9611 183.753 49.8852 183.236C49.8093 182.729 49.7382 182.219 49.6742 181.709C49.6173 181.264 49.5367 180.818 49.5107 180.368C49.4988 180.142 49.4467 179.922 49.4206 179.697C49.3424 178.967 49.2452 178.239 49.1598 177.511C49.0247 176.354 48.8967 175.198 48.7568 174.043C48.7331 173.849 48.745 173.647 48.6715 173.46C48.7165 173.429 48.6857 173.403 48.6667 173.377C48.6715 173.358 48.6786 173.337 48.6762 173.318C48.6525 173.121 48.6288 172.927 48.6051 172.73C48.5838 172.54 48.5696 172.35 48.5458 172.161C48.5245 171.964 48.4842 171.77 48.4771 171.573C48.47 171.381 48.406 171.201 48.406 171.006C48.406 170.795 48.3633 170.587 48.3396 170.376C48.3159 170.165 48.2803 169.956 48.2685 169.745C48.259 169.541 48.1974 169.345 48.1974 169.138C48.1974 168.899 48.1523 168.662 48.1239 168.425C48.0954 168.174 48.0623 167.925 48.0314 167.676C47.9888 167.662 47.9556 167.676 47.9224 167.678C47.7517 167.704 47.5882 167.761 47.4127 167.775C47.088 167.799 46.7656 167.794 46.4432 167.792C46.4242 167.79 46.4076 167.787 46.3887 167.785C46.2204 167.728 46.0402 167.733 45.8695 167.695C45.7652 167.671 45.6656 167.697 45.6348 167.816C45.5874 167.989 45.495 168.14 45.4239 168.304C45.1892 168.842 44.9426 169.375 44.6985 169.906C44.5112 170.317 44.3168 170.724 44.1248 171.132C43.9138 171.58 43.7028 172.026 43.4895 172.471C43.0272 173.436 42.5697 174.403 42.0956 175.361C41.2422 177.089 40.377 178.81 39.4714 180.51C39.4501 180.55 39.443 180.607 39.3671 180.617C39.1277 180.15 38.8812 179.683 38.6441 179.211C38.023 177.966 37.402 176.724 36.7975 175.472C36.2333 174.304 35.6667 173.135 35.112 171.962C34.4578 170.57 33.794 169.181 33.1611 167.778C33.1208 167.688 33.0663 167.669 32.9596 167.695C32.713 167.756 32.4594 167.787 32.2058 167.797C31.8028 167.811 31.4045 167.78 31.0134 167.69C30.9233 167.669 30.8948 167.704 30.8901 167.78C30.8806 167.984 30.8308 168.183 30.8119 168.387C30.7763 168.773 30.7194 169.157 30.6697 169.544C30.5796 170.257 30.4919 170.973 30.397 171.687C30.2643 172.68 30.1268 173.673 29.9893 174.667C29.8613 175.579 29.7333 176.494 29.5958 177.407C29.4488 178.391 29.2947 179.374 29.1383 180.358C29.0079 181.188 28.8728 182.018 28.7306 182.845C28.6357 183.4 28.5456 183.954 28.4366 184.507C28.375 184.815 28.3299 185.13 28.2849 185.445C28.2446 185.718 28.1924 185.988 28.1308 186.256C28.0858 186.446 28.0739 186.446 28.273 186.41C28.9036 186.301 29.5365 186.28 30.1695 186.363C30.3283 186.384 30.4871 186.41 30.6578 186.439C30.6886 186.01 30.7194 185.597 30.7479 185.182C30.7882 184.597 30.8214 184.011 30.8617 183.428C30.9209 182.568 30.9849 181.709 31.0466 180.849C31.0703 180.823 31.0726 180.794 31.0513 180.764C31.1224 180.005 31.1817 179.244 31.2504 178.485C31.3405 177.487 31.4519 176.489 31.5681 175.494C31.5799 175.387 31.5633 175.271 31.5894 175.174C31.6629 174.906 31.6748 174.631 31.7079 174.361C31.7198 174.266 31.7435 174.195 31.7743 174.088C31.9237 174.384 32.0588 174.655 32.1963 174.92C32.3598 175.238 32.5068 175.563 32.6585 175.887C32.9003 176.399 33.1729 176.897 33.4242 177.407C33.5736 177.706 33.6873 178.023 33.8533 178.312C34.088 178.72 34.2112 179.178 34.4578 179.578C34.6118 179.827 34.7114 180.105 34.837 180.368C34.9769 180.659 35.1428 180.941 35.2637 181.24C35.3941 181.558 35.5695 181.854 35.7023 182.169C35.835 182.487 36.001 182.788 36.148 183.101C36.3613 183.554 36.5581 184.016 36.7785 184.466C37.1009 185.121 37.4162 185.78 37.7078 186.448C37.7125 186.46 37.7149 186.477 37.722 186.479C37.7457 186.486 37.7504 186.467 37.7528 186.448C37.805 186.439 37.8595 186.427 37.9116 186.417C37.9211 186.431 37.933 186.448 37.9424 186.462C37.9519 186.446 37.959 186.429 37.9685 186.41C38.1866 186.386 38.4071 186.377 38.6204 186.429C38.7129 186.45 38.7366 186.413 38.7792 186.349C38.9096 186.147 38.9997 185.924 39.0993 185.708C39.3434 185.177 39.5947 184.651 39.8412 184.12C40.0214 183.731 40.1826 183.331 40.3841 182.952C40.5832 182.577 40.7302 182.181 40.9293 181.807C41.1474 181.399 41.3299 180.975 41.5243 180.555C41.612 180.365 41.7211 180.183 41.8064 179.993C41.9961 179.566 42.1952 179.142 42.3967 178.72C42.5958 178.301 42.8068 177.881 43.0154 177.466C43.2548 176.99 43.4587 176.494 43.71 176.025C43.8403 175.778 43.947 175.518 44.0727 175.266C44.2955 174.821 44.4851 174.361 44.7364 173.929C44.7672 173.917 44.8004 173.917 44.8289 173.936C44.8502 174.124 44.8739 174.311 44.8929 174.498C44.9687 175.228 45.0493 175.956 45.1204 176.686C45.2176 177.663 45.3101 178.637 45.4002 179.614C45.4808 180.491 45.5542 181.37 45.6325 182.247C45.6111 182.276 45.6135 182.304 45.6372 182.333C45.6538 182.558 45.668 182.783 45.687 183.008C45.7723 183.969 45.8268 184.933 45.8885 185.896C45.8671 185.924 45.8695 185.953 45.8909 185.981C45.8956 186.081 45.8956 186.178 45.9027 186.277C45.9146 186.448 45.9146 186.45 46.0829 186.429C46.7703 186.346 47.4625 186.313 48.1523 186.311C48.8351 186.311 49.5201 186.341 50.2005 186.427C50.338 186.443 50.3403 186.441 50.338 186.299C50.338 186.263 50.338 186.228 50.3309 186.192C50.2692 185.965 50.2289 185.735 50.2147 185.5" fill="white"/>
<path d="M239.215 172.767C239.016 172.338 238.817 171.914 238.561 171.511C238.106 170.793 237.546 170.172 236.904 169.622C236.588 169.351 236.252 169.114 235.906 168.891C235.157 168.41 234.336 168.078 233.483 167.82C232.49 167.521 231.473 167.377 230.442 167.325C229.145 167.258 227.865 167.372 226.606 167.701C225.947 167.874 225.295 168.076 224.684 168.377C224.176 168.628 223.686 168.906 223.238 169.254C222.899 169.517 222.548 169.766 222.247 170.077C222.081 170.25 221.905 170.416 221.739 170.586C221.519 170.816 221.32 171.065 221.13 171.324C220.862 171.686 220.621 172.068 220.405 172.466C220.087 173.056 219.838 173.675 219.649 174.32C219.511 174.787 219.423 175.266 219.362 175.747C219.276 176.418 219.26 177.096 219.303 177.776C219.364 178.774 219.516 179.756 219.815 180.713C219.938 181.104 220.099 181.484 220.267 181.856C220.367 182.074 220.502 182.29 220.63 182.501C221.339 183.667 222.294 184.58 223.446 185.291C224.202 185.758 225.03 186.064 225.881 186.303C227.09 186.644 228.33 186.784 229.584 186.775C229.78 186.775 229.979 186.775 230.176 186.775C230.657 186.772 231.136 186.718 231.606 186.637C232.208 186.533 232.805 186.391 233.383 186.182C235.823 185.305 237.731 183.805 238.923 181.465C239.044 181.228 239.165 180.991 239.267 180.744C239.462 180.272 239.606 179.784 239.746 179.293C239.917 178.705 239.99 178.106 240.016 177.501C240.068 176.257 239.962 175.026 239.585 173.832C239.471 173.471 239.369 173.109 239.21 172.765M235.5 177.93C235.458 178.321 235.398 178.71 235.337 179.099C235.235 179.722 235.067 180.325 234.858 180.917C234.604 181.638 234.258 182.311 233.791 182.92C233.258 183.615 232.596 184.153 231.814 184.549C230.809 185.056 229.749 185.182 228.645 185.044C227.576 184.912 226.635 184.499 225.84 183.771C225.264 183.243 224.861 182.593 224.539 181.884C224.319 181.398 224.143 180.898 224.025 180.379C223.932 179.967 223.894 179.54 223.842 179.116C223.804 178.815 223.78 178.511 223.75 178.21C223.74 178.21 223.731 178.205 223.724 178.203C223.731 178.208 223.74 178.21 223.75 178.21C223.75 178.193 223.75 178.177 223.75 178.16C223.74 178.165 223.721 178.17 223.719 178.179C223.719 178.172 223.738 178.167 223.75 178.16C223.75 177.613 223.75 177.063 223.75 176.515C223.75 176.499 223.75 176.482 223.75 176.465C223.771 176.299 223.797 176.133 223.79 175.965C223.79 175.949 223.79 175.932 223.79 175.913C223.842 175.531 223.875 175.145 223.954 174.768C224.003 174.529 224.046 174.287 224.112 174.05C224.247 173.571 224.39 173.094 224.586 172.637C224.821 172.087 225.103 171.568 225.461 171.089C225.675 170.807 225.867 170.508 226.132 170.271C226.293 170.126 226.481 170.008 226.637 169.861C226.865 169.65 227.128 169.501 227.4 169.37C227.983 169.088 228.6 168.92 229.249 168.872C229.631 168.844 230.01 168.861 230.39 168.91C230.408 168.963 230.435 168.996 230.489 168.946C230.596 168.903 230.702 168.946 230.797 168.974C231.184 169.083 231.58 169.159 231.94 169.349C232.3 169.536 232.644 169.745 232.973 169.984C233.535 170.39 233.967 170.911 234.329 171.485C234.652 171.994 234.884 172.554 235.069 173.135C235.403 174.18 235.56 175.247 235.545 176.342C235.538 176.871 235.55 177.402 235.493 177.93" fill="white"/>
<path d="M177.28 173.075C177.209 172.81 177.105 172.559 177 172.305C176.801 171.819 176.562 171.354 176.251 170.935C175.799 170.326 175.253 169.806 174.618 169.377C174.248 169.126 173.857 168.92 173.461 168.718C173.198 168.583 172.909 168.493 172.62 168.415C172.191 168.299 171.773 168.14 171.33 168.062C171.112 168.024 170.896 167.948 170.676 167.91C169.685 167.746 168.687 167.68 167.684 167.659C166.582 167.635 165.482 167.687 164.382 167.732C164.354 167.711 164.325 167.713 164.297 167.737C163.635 167.754 162.974 167.799 162.31 167.799C161.639 167.799 160.973 167.737 160.305 167.675C160.144 167.661 160.139 167.654 160.148 167.822C160.17 168.168 160.203 168.512 160.217 168.856C160.262 169.934 160.3 171.013 160.34 172.092C160.267 172.17 160.267 172.284 160.34 172.367C160.343 172.556 160.347 172.748 160.347 172.938C160.329 176.174 160.385 179.407 160.314 182.643C160.293 183.603 160.255 184.563 160.193 185.521C160.177 185.782 160.165 186.042 160.144 186.303C160.134 186.412 160.174 186.438 160.276 186.424C160.459 186.4 160.641 186.386 160.824 186.369C161.414 186.32 162.007 186.294 162.599 186.303C162.642 186.329 162.685 186.329 162.727 186.305C163.301 186.32 163.877 186.331 164.451 186.348C164.766 186.358 165.079 186.377 165.394 186.393C165.394 186.412 165.404 186.431 165.428 186.426C165.437 186.426 165.442 186.407 165.447 186.398C165.932 186.4 166.416 186.403 166.902 186.407C167.006 186.407 167.111 186.426 167.217 186.436C167.22 186.455 167.227 186.474 167.25 186.469C167.26 186.469 167.265 186.45 167.269 186.441C167.658 186.441 168.045 186.441 168.433 186.436C169.37 186.422 170.287 186.286 171.183 186.009C172.037 185.744 172.833 185.362 173.577 184.864C174.383 184.326 175.083 183.676 175.673 182.911C176.04 182.437 176.379 181.941 176.621 181.384C176.759 181.067 176.936 180.765 177.055 180.438C177.28 179.805 177.458 179.158 177.593 178.502C177.659 178.17 177.705 177.831 177.723 177.492C177.788 176.295 177.792 175.1 177.491 173.922C177.42 173.64 177.354 173.355 177.278 173.075M173.381 178.101C173.331 178.604 173.246 179.099 173.127 179.594C172.982 180.204 172.788 180.789 172.537 181.36C172.165 182.209 171.641 182.942 170.925 183.53C170.112 184.196 169.173 184.594 168.139 184.781C167.533 184.89 166.921 184.874 166.309 184.878C165.781 184.881 165.25 184.852 164.721 184.824C164.418 184.807 164.422 184.802 164.418 184.504C164.342 179.926 164.406 175.349 164.382 170.771C164.382 170.34 164.439 169.911 164.418 169.479C164.413 169.389 164.449 169.356 164.536 169.349C164.88 169.313 165.224 169.285 165.57 169.268C165.598 169.29 165.627 169.287 165.655 169.264C166.305 169.214 166.954 169.207 167.601 169.235C168.744 169.283 169.794 169.626 170.745 170.278C171.615 170.873 172.231 171.674 172.681 172.613C172.999 173.277 173.198 173.983 173.321 174.706C173.513 175.837 173.49 176.97 173.378 178.106" fill="white"/>
<path d="M128.276 181.88C127.333 180.324 126.354 178.791 125.46 177.214C125.517 177.162 125.56 177.162 125.598 177.15C126.143 176.994 126.672 176.804 127.169 176.527C127.608 176.285 128.032 176.008 128.364 175.631C128.727 175.216 129.04 174.756 129.255 174.237C129.364 173.976 129.464 173.713 129.507 173.44C129.564 173.111 129.637 172.777 129.654 172.435C129.68 171.895 129.606 171.366 129.455 170.849C129.329 170.425 129.161 170.013 128.895 169.65C128.696 169.373 128.48 169.109 128.224 168.875C127.575 168.287 126.795 167.962 125.932 167.827C125.188 167.711 124.429 167.68 123.675 167.663C122.722 167.647 121.769 167.694 120.821 167.742C119.972 167.784 119.126 167.836 118.277 167.78C117.844 167.753 117.41 167.711 116.974 167.675C116.948 167.713 116.952 167.758 116.957 167.801C117.009 168.356 117.021 168.915 117.057 169.467C117.135 170.745 117.161 172.023 117.161 173.301C117.161 176.546 117.204 179.789 117.118 183.029C117.109 183.48 117.097 183.921 117.066 184.369H117.071L117.04 184.966L117.023 185.286C117.002 185.589 116.986 185.898 116.967 186.201C116.962 186.275 116.94 186.353 116.976 186.44C117.578 186.384 118.176 186.324 118.778 186.32L118.993 186.31L119.14 186.301L119.261 186.305L119.648 186.317V186.322C120.228 186.327 120.804 186.391 121.376 186.433C121.423 186.369 121.407 186.303 121.402 186.239C121.376 185.753 121.35 185.272 121.319 184.788V184.783L121.298 184.369C121.293 184.307 121.288 184.252 121.267 184.196C121.279 184.186 121.283 184.184 121.288 184.179V184.132C121.288 184.132 121.276 184.117 121.267 184.11C121.293 184.063 121.276 184.015 121.276 183.968C121.276 183.899 121.271 183.828 121.271 183.759C121.26 183.262 121.245 182.768 121.234 182.273C121.224 181.927 121.229 181.581 121.217 181.235C121.179 180.14 121.2 179.042 121.2 177.952C121.2 177.895 121.174 177.812 121.269 177.8C121.354 177.79 121.442 177.779 121.49 177.883C121.499 177.899 121.506 177.918 121.516 177.94C122.343 179.407 123.175 180.872 123.993 182.344C124.27 182.847 124.585 183.335 124.832 183.861C124.946 184.108 125.105 184.324 125.235 184.554C125.365 184.774 125.46 185.009 125.598 185.224C125.813 185.561 126.017 185.909 126.183 186.277C126.257 186.445 126.273 186.45 126.451 186.438C126.591 186.429 126.733 186.417 126.871 186.403C126.901 186.424 126.932 186.424 126.956 186.398C128.369 186.26 129.779 186.31 131.223 186.445C130.256 184.881 129.203 183.418 128.269 181.884M125.06 174.92C124.761 175.538 124.301 175.989 123.682 176.287C122.955 176.634 122.196 176.7 121.411 176.634C121.369 176.634 121.326 176.617 121.286 176.617C121.222 176.607 121.2 176.579 121.2 176.517C121.2 176.453 121.196 176.392 121.196 176.328C121.191 175.353 121.191 174.379 121.217 173.405C121.238 172.589 121.217 171.767 121.238 170.949C121.25 170.43 121.274 169.906 121.274 169.384C121.274 169.294 121.279 169.228 121.409 169.228C122.049 169.233 122.691 169.245 123.327 169.358C123.829 169.448 124.289 169.636 124.668 169.982C125.102 170.373 125.287 170.887 125.387 171.442C125.46 171.862 125.474 172.286 125.496 172.777C125.479 173.469 125.401 174.218 125.06 174.92Z" fill="white"/>
<path d="M202.521 183.16C202 182.382 201.474 181.605 200.95 180.827C200.296 179.855 199.641 178.886 199.008 177.9C198.525 177.148 198.017 176.411 197.52 175.664C197.406 175.491 197.406 175.491 197.534 175.342C197.728 175.11 197.923 174.877 198.119 174.647C198.636 174.05 199.151 173.448 199.674 172.858C200.39 172.049 201.111 171.246 201.839 170.444C202.654 169.546 203.465 168.64 204.323 167.782C204.344 167.759 204.382 167.74 204.356 167.678C204.219 167.69 204.074 167.702 203.93 167.716C203.403 167.77 202.877 167.837 202.346 167.785C202.031 167.754 201.713 167.718 201.4 167.678C201.31 167.666 201.241 167.661 201.182 167.749C201 168.012 200.808 168.271 200.62 168.531C200.31 168.963 199.973 169.373 199.658 169.8C199.487 170.032 199.295 170.255 199.106 170.478C198.833 170.795 198.603 171.146 198.335 171.466C198.046 171.814 197.778 172.182 197.47 172.514C197.202 172.803 196.993 173.144 196.73 173.443C196.643 173.543 196.586 173.673 196.488 173.761C196.299 173.929 196.176 174.149 196 174.33C195.699 174.643 195.467 175.01 195.17 175.328C194.922 175.593 194.699 175.885 194.462 176.162C194.433 176.195 194.426 176.259 194.348 176.243C194.348 176.191 194.348 176.134 194.348 176.079C194.367 173.782 194.322 171.485 194.436 169.19C194.459 168.704 194.488 168.216 194.554 167.735C194.578 167.664 194.554 167.642 194.483 167.668C194.071 167.704 193.656 167.751 193.243 167.773C192.482 167.813 191.724 167.813 190.965 167.74C190.939 167.716 190.911 167.713 190.88 167.735C190.631 167.713 190.382 167.692 190.124 167.668C190.093 167.948 190.157 168.223 190.159 168.5C190.135 168.543 190.138 168.586 190.164 168.628C190.173 168.818 190.188 169.008 190.195 169.197C190.237 170.139 190.287 171.08 190.287 172.021C190.266 172.049 190.266 172.078 190.29 172.106C190.311 172.895 190.311 173.685 190.323 174.477C190.344 176.058 190.323 177.639 190.327 179.218C190.327 180.021 190.268 180.825 190.306 181.629C190.311 181.719 190.313 181.813 190.28 181.901C190.221 181.927 190.221 181.956 190.278 181.986C190.28 182.027 190.285 182.069 190.285 182.11C190.285 182.676 190.275 183.243 190.247 183.807C190.223 183.835 190.223 183.864 190.247 183.892C190.24 184.118 190.233 184.343 190.202 184.568C190.19 184.573 190.173 184.577 190.171 184.585C190.164 184.608 190.183 184.615 190.202 184.618C190.216 184.928 190.171 185.236 190.166 185.547C190.143 185.575 190.143 185.604 190.164 185.632C190.157 185.898 190.102 186.161 190.124 186.429C190.557 186.396 190.977 186.365 191.399 186.334C191.397 186.353 191.397 186.377 191.423 186.372C191.435 186.37 191.442 186.344 191.451 186.327C191.709 186.32 191.97 186.313 192.229 186.303C192.304 186.301 192.383 186.287 192.456 186.32C192.515 186.422 192.57 186.306 192.627 186.315C193.272 186.31 193.914 186.384 194.559 186.431C194.521 185.952 194.485 185.497 194.45 185.04C194.471 185.011 194.471 184.983 194.447 184.954C194.421 184.172 194.386 183.387 194.372 182.605C194.357 181.821 194.362 181.036 194.364 180.254C194.367 179.476 194.35 178.696 194.386 177.914C196.216 180.759 198.053 183.587 199.843 186.441C200.395 186.4 200.95 186.348 201.507 186.327C201.796 186.315 202.085 186.289 202.375 186.313C202.401 186.336 202.429 186.339 202.46 186.317C202.785 186.317 203.109 186.332 203.434 186.355C203.477 186.379 203.517 186.381 203.562 186.36C203.977 186.389 204.394 186.415 204.852 186.445C204.657 186.185 204.484 185.964 204.323 185.737C203.719 184.886 203.119 184.032 202.536 183.165" fill="white"/>
<path d="M67.6737 167.664C67.6642 168.053 67.714 168.425 67.7164 168.797C67.695 168.826 67.6974 168.854 67.7211 168.883C67.7448 169.355 67.7804 169.829 67.7875 170.3C67.8065 171.438 67.8657 172.574 67.8705 173.712C67.8752 174.878 67.8871 176.042 67.8491 177.208C67.8088 178.379 67.7377 179.545 67.5054 180.698C67.3513 181.458 67.1475 182.2 66.7729 182.886C66.1921 183.955 65.3103 184.637 64.1013 184.834C63.0369 185.007 61.9749 184.924 60.9319 184.652C60.1757 184.452 59.5641 184.016 59.0853 183.409C58.5069 182.677 58.2935 181.786 58.0588 180.909C58.0517 180.506 57.9379 180.114 57.9071 179.711C57.8621 179.112 57.8052 178.514 57.8004 177.915C57.7933 177.045 57.7981 176.177 57.8004 175.307C57.8004 174.911 57.791 174.515 57.8147 174.117C57.8289 173.87 57.8194 173.621 57.8289 173.375C57.8597 172.557 57.8929 171.737 57.9261 170.919C57.9498 170.893 57.9498 170.865 57.9284 170.834C57.945 170.566 57.9569 170.298 57.9759 170.03C58.009 169.587 58.0446 169.144 58.0802 168.7C58.1062 168.392 58.137 168.082 58.1655 167.773C58.1726 167.709 58.1702 167.664 58.0802 167.674C57.7649 167.705 57.4496 167.735 57.1319 167.757C56.3426 167.814 55.5532 167.821 54.7638 167.757C54.4224 167.728 54.0787 167.716 53.716 167.664C53.735 168.084 53.7516 168.485 53.7705 168.885C53.7468 169.042 53.7468 169.196 53.7753 169.352C53.8132 169.902 53.8085 170.454 53.8061 171.004C53.799 173.124 53.8298 175.243 53.7729 177.362C53.7516 178.147 53.7705 178.931 53.7682 179.714C53.7682 180.095 53.7871 180.475 53.844 180.854C53.9009 181.233 53.9531 181.613 54.0645 181.982C54.1759 182.352 54.2849 182.722 54.4556 183.068C54.5504 183.26 54.6713 183.44 54.7827 183.625C54.8752 183.782 54.9487 183.955 55.0672 184.087C55.4963 184.557 55.9159 185.04 56.4706 185.375C56.5583 185.427 56.6199 185.531 56.7124 185.564C56.9115 185.64 57.0869 185.759 57.2789 185.842C57.6274 185.996 57.9806 186.133 58.3362 186.268C58.5424 186.347 58.7558 186.403 58.9644 186.463C59.1825 186.524 59.4195 186.565 59.6518 186.595C60.0358 186.648 60.4199 186.712 60.8063 186.74C60.8205 186.776 60.8371 186.79 60.8561 186.742C61.1642 186.785 61.4771 186.776 61.7853 186.783C62.634 186.806 63.4755 186.757 64.3099 186.598C64.7556 186.512 65.1941 186.406 65.6232 186.247C66.7113 185.844 67.6429 185.228 68.3564 184.296C68.8708 183.623 69.2383 182.876 69.4919 182.07C69.6484 181.568 69.7645 181.053 69.8499 180.529C69.9139 180.126 69.9684 179.721 70.0016 179.316C70.0656 178.54 70.049 177.763 70.049 176.985C70.049 176.815 70.049 176.646 70.0608 176.476C70.1035 175.644 70.0822 174.809 70.0869 173.977C70.0869 173.96 70.0869 173.944 70.0869 173.927C70.094 173.873 70.1059 173.816 70.1059 173.761C70.1272 173.109 70.1486 172.458 70.1675 171.806C70.1723 171.68 70.1865 171.554 70.1604 171.429C70.1889 171.403 70.2102 171.374 70.1651 171.346C70.2197 170.81 70.222 170.272 70.2576 169.734C70.2813 169.708 70.2837 169.679 70.2623 169.648C70.3074 168.997 70.3524 168.342 70.3975 167.667C69.4848 167.847 68.584 167.844 67.6737 167.667" fill="white"/>
<path d="M107.733 169.704C107.755 169.704 107.776 169.707 107.797 169.707C108.333 169.73 108.869 169.747 109.405 169.783C109.805 169.809 110.208 169.794 110.606 169.866C110.656 169.951 110.692 169.882 110.734 169.856C111.704 169.913 112.674 169.97 113.653 170.029C113.629 169.88 113.629 169.745 113.581 169.631C113.529 169.505 113.581 169.389 113.567 169.271C113.498 168.768 113.551 168.27 113.638 167.775C113.653 167.694 113.648 167.651 113.551 167.666C113.207 167.711 112.861 167.718 112.517 167.732C112.489 167.713 112.46 167.713 112.432 167.737C112.031 167.744 111.628 167.763 111.228 167.768C109.741 167.791 108.255 167.813 106.769 167.775C106.297 167.763 105.825 167.749 105.353 167.734C105.327 167.711 105.299 167.708 105.268 167.732C104.943 167.718 104.618 167.706 104.294 167.692C104.265 167.67 104.237 167.67 104.208 167.692C103.933 167.68 103.661 167.663 103.386 167.659C103.108 167.654 103.127 167.628 103.144 167.9C103.156 168.083 103.175 168.265 103.182 168.448C103.229 169.484 103.291 170.517 103.31 171.553C103.315 171.85 103.315 172.146 103.317 172.442C103.296 172.471 103.298 172.499 103.319 172.528C103.322 172.803 103.327 173.078 103.327 173.353C103.327 175.79 103.327 178.229 103.327 180.666C103.327 180.87 103.343 181.076 103.331 181.28C103.291 182.062 103.315 182.847 103.274 183.631C103.229 184.52 103.199 185.409 103.132 186.296C103.123 186.436 103.12 186.438 103.26 186.424C104.118 186.341 104.979 186.315 105.839 186.319C107.11 186.324 108.381 186.293 109.651 186.308C110.9 186.322 112.15 186.374 113.397 186.426C113.472 186.429 113.551 186.452 113.641 186.412C113.494 185.627 113.506 184.84 113.648 184.039C113.299 184.075 112.979 184.11 112.657 184.139C112.031 184.195 111.405 184.236 110.779 184.286C109.722 184.369 108.663 184.342 107.605 184.395C107.425 184.404 107.425 184.395 107.411 184.21C107.361 183.506 107.364 182.797 107.347 182.093C107.311 180.616 107.368 179.142 107.375 177.665C107.375 177.65 107.375 177.636 107.375 177.622C107.368 177.544 107.397 177.508 107.482 177.508C107.743 177.508 108.006 177.494 108.264 177.506C109.286 177.549 110.31 177.551 111.332 177.613C111.932 177.648 112.529 177.688 113.129 177.726C113.259 177.733 113.392 177.767 113.544 177.722C113.349 176.956 113.375 176.19 113.529 175.417C112.633 175.458 111.768 175.496 110.9 175.534C110.872 175.512 110.843 175.515 110.815 175.538C110.455 175.545 110.097 175.555 109.736 175.569C109.011 175.602 108.286 175.605 107.558 175.619C107.368 175.621 107.373 175.659 107.373 175.443C107.373 174.73 107.378 174.019 107.375 173.305C107.375 172.973 107.392 172.644 107.366 172.312C107.397 172.286 107.411 172.257 107.366 172.229C107.418 171.838 107.401 171.444 107.423 171.053C107.425 171.006 107.38 170.982 107.399 170.92C107.47 170.712 107.463 170.496 107.447 170.278C107.473 170.252 107.494 170.224 107.449 170.195C107.484 170.107 107.473 170.015 107.48 169.925C107.496 169.697 107.496 169.695 107.726 169.702" fill="white"/>
<path d="M84.8339 179.07C84.7177 178.656 84.5541 178.257 84.3195 177.895C84.1772 177.674 84.0018 177.475 83.8453 177.266C83.6438 176.996 83.3831 176.795 83.1342 176.588C82.9588 176.444 82.7549 176.316 82.5652 176.185C82.3092 176.012 82.039 175.863 81.783 175.692C81.5649 175.55 81.3136 175.465 81.0908 175.33C80.8348 175.176 80.5384 175.105 80.2801 174.95C80.0098 174.789 79.7253 174.656 79.4409 174.521C79.1564 174.386 78.8648 174.254 78.6041 174.085C78.386 173.945 78.1703 173.789 77.9593 173.632C77.6914 173.433 77.4496 173.206 77.2576 172.931C76.9992 172.556 76.8238 172.153 76.7954 171.691C76.7693 171.276 76.8191 170.878 77.004 170.503C77.1865 170.136 77.4402 169.835 77.7791 169.586C78.1086 169.342 78.4642 169.176 78.853 169.098C79.4124 168.984 79.9743 168.965 80.5384 169.124C80.7731 169.19 81.0125 169.249 81.2164 169.365C81.5933 169.581 81.9797 169.799 82.2286 170.181C82.2429 170.205 82.2642 170.224 82.2832 170.245C82.4372 170.406 82.5321 170.605 82.6411 170.797C82.7288 170.951 82.7762 171.122 82.8592 171.276C82.8711 171.3 82.8711 171.328 82.9042 171.335C83.0228 171.359 83.146 171.366 83.2622 171.338C83.3523 171.316 83.3428 171.203 83.3689 171.127C83.3949 171.056 83.4139 170.98 83.4352 170.906C83.6225 170.28 83.8027 169.655 84.0279 169.041C84.0753 168.91 84.1867 168.77 84.144 168.652C84.099 168.524 83.933 168.46 83.8098 168.379C82.9754 167.839 82.0485 167.552 81.0766 167.407C80.2563 167.284 79.4314 167.268 78.6088 167.4C77.9664 167.505 77.3406 167.661 76.7574 167.96C76.3189 168.183 75.8969 168.424 75.5153 168.749C75.181 169.034 74.8989 169.358 74.6263 169.693C74.4983 169.849 74.4154 170.034 74.3063 170.202C74.1072 170.51 73.991 170.852 73.8725 171.188C73.7658 171.492 73.7137 171.814 73.6757 172.139C73.6212 172.589 73.588 173.04 73.6117 173.493C73.6449 174.073 73.7374 174.647 73.9578 175.185C74.1901 175.749 74.5244 176.254 74.9416 176.705C75.1265 176.904 75.3849 177.022 75.52 177.269C75.6504 177.269 75.6836 177.409 75.7737 177.449C76.0107 177.549 76.2004 177.724 76.4161 177.857C76.6128 177.975 76.812 178.101 77.0111 178.21C77.5563 178.511 78.1252 178.762 78.6799 179.042C79.0782 179.241 79.4717 179.457 79.87 179.658C80.043 179.746 80.1852 179.881 80.3441 179.99C80.683 180.223 80.9912 180.495 81.2354 180.832C81.4985 181.197 81.6455 181.612 81.681 182.05C81.7119 182.437 81.7142 182.828 81.5507 183.207C81.463 183.413 81.3895 183.629 81.2662 183.816C80.8419 184.459 80.2303 184.836 79.493 185.006C78.8601 185.153 78.2201 185.137 77.58 185.018C77.0135 184.914 76.4991 184.689 76.051 184.335C75.3802 183.804 74.9653 183.103 74.7875 182.266C74.7709 182.183 74.7354 182.162 74.6595 182.164C74.56 182.164 74.4628 182.164 74.3632 182.164C74.2897 182.164 74.2589 182.192 74.2304 182.266C74.183 182.389 74.2233 182.52 74.1783 182.638C74.0811 182.899 74.1356 183.195 73.9839 183.442C74.0147 183.743 73.8678 184.008 73.8061 184.29C73.716 184.696 73.6117 185.103 73.4743 185.499C73.4292 185.627 73.4742 185.68 73.5501 185.736C73.6663 185.819 73.7919 185.886 73.9294 185.933C74.1475 186.011 74.33 186.163 74.5528 186.244C74.7377 186.31 74.925 186.414 75.1123 186.433C75.3233 186.452 75.5058 186.547 75.7097 186.583C76.2027 186.668 76.6982 186.737 77.196 186.796C77.1984 186.815 77.2055 186.834 77.2292 186.829C77.2387 186.829 77.241 186.81 77.2481 186.801C77.3809 186.801 77.516 186.796 77.6488 186.801C78.6539 186.822 79.64 186.713 80.6024 186.414C81.2638 186.208 81.8991 185.945 82.4704 185.549C82.9872 185.191 83.4589 184.786 83.8453 184.281C84.4664 183.468 84.8315 182.553 84.9856 181.55C85.0306 181.258 85.033 180.96 85.0425 180.663C85.0519 180.365 85.0069 180.073 84.9785 179.779C84.9571 179.547 84.886 179.319 84.822 179.094" fill="white"/>
<path d="M216.69 178.07C216.512 177.746 216.292 177.44 216.024 177.174C215.792 176.944 215.571 176.696 215.304 176.508C214.773 176.136 214.237 175.771 213.647 175.494C213.545 175.446 213.452 175.385 213.357 175.328C213.175 175.221 212.992 175.095 212.793 175.041C212.596 174.989 212.416 174.901 212.253 174.799C211.861 174.553 211.416 174.415 211.032 174.157C210.939 174.095 210.821 174.043 210.731 173.984C210.596 173.894 210.453 173.804 210.321 173.702C210.174 173.59 210.048 173.457 209.92 173.332C209.778 173.19 209.638 173.045 209.512 172.881C209.095 172.334 209.048 171.701 209.097 171.058C209.121 170.755 209.268 170.468 209.446 170.212C209.854 169.627 210.408 169.245 211.105 169.096C211.717 168.965 212.331 168.956 212.938 169.143C213.18 169.217 213.419 169.299 213.642 169.418C213.874 169.544 214.076 169.71 214.265 169.894C214.64 170.257 214.943 170.663 215.09 171.172C215.138 171.333 215.152 171.338 215.33 171.341C215.379 171.341 215.429 171.338 215.479 171.341C215.574 171.348 215.607 171.307 215.631 171.213C215.728 170.852 215.837 170.494 215.951 170.136C216.098 169.672 216.238 169.205 216.427 168.754C216.463 168.671 216.451 168.631 216.368 168.569C215.96 168.254 215.51 168.015 215.033 167.827C214.244 167.519 213.417 167.363 212.573 167.315C211.511 167.258 210.472 167.382 209.472 167.752C209.142 167.872 208.822 168.015 208.533 168.223C208.329 168.37 208.107 168.494 207.905 168.65C207.782 168.747 207.687 168.873 207.547 168.958C207.421 169.034 207.346 169.188 207.241 169.302C206.774 169.816 206.44 170.411 206.217 171.066C205.878 172.064 205.814 173.088 205.968 174.128C206.07 174.818 206.31 175.458 206.703 176.032C207.201 176.76 207.862 177.326 208.611 177.788C209.27 178.196 209.965 178.542 210.66 178.884C211.347 179.22 212.046 179.538 212.667 179.993C213.073 180.289 213.445 180.626 213.682 181.079C214.023 181.735 214.097 182.418 213.869 183.134C213.775 183.433 213.656 183.719 213.466 183.952C212.992 184.533 212.362 184.879 211.629 185.021C211.12 185.12 210.603 185.125 210.091 185.033C208.595 184.77 207.58 183.949 207.137 182.47C207.104 182.361 207.128 182.202 207.016 182.155C206.914 182.112 206.779 182.148 206.661 182.141C206.568 182.136 206.537 182.179 206.525 182.262C206.506 182.409 206.483 182.556 206.457 182.7C206.286 183.632 206.061 184.549 205.795 185.457C205.762 185.571 205.776 185.635 205.878 185.701C206.127 185.862 206.386 186.007 206.661 186.121C207.777 186.585 208.946 186.78 210.541 186.777C211.274 186.773 212.148 186.64 213.044 186.344C214.751 185.777 216.079 184.767 216.832 183.087C216.972 182.778 217.06 182.456 217.157 182.136C217.254 181.816 217.29 181.486 217.314 181.159C217.359 180.529 217.352 179.898 217.164 179.277C217.036 178.858 216.901 178.443 216.695 178.063" fill="white"/>
<path d="M100.6 167.664C95.9399 167.849 91.2984 167.842 86.626 167.664C86.8015 168.468 86.8062 169.257 86.626 170.051C86.6782 170.051 86.6972 170.056 86.7161 170.056C87.2708 169.992 87.8255 169.935 88.3802 169.895C88.8164 169.864 89.2526 169.819 89.6888 169.791C90.2387 169.757 90.7887 169.729 91.3387 169.71C91.5852 169.701 91.5876 169.71 91.6255 169.95C91.6373 170.025 91.6516 170.104 91.6516 170.182C91.6587 170.592 91.6824 171 91.6824 171.41C91.6777 174.335 91.6824 177.26 91.6776 180.188C91.6776 180.517 91.6729 180.844 91.6468 181.176C91.6231 181.487 91.6516 181.807 91.6468 182.122C91.6421 182.447 91.6492 182.772 91.6136 183.094C91.5947 183.094 91.5757 183.097 91.5805 183.123C91.5805 183.13 91.5994 183.134 91.6113 183.139C91.6065 183.435 91.6089 183.732 91.5947 184.028C91.5591 184.789 91.5141 185.552 91.4738 186.313C91.4667 186.441 91.469 186.444 91.5994 186.432C91.7677 186.418 91.936 186.401 92.1067 186.384C92.7041 186.328 93.3038 186.309 93.9036 186.313C93.9297 186.337 93.9581 186.339 93.9889 186.318C94.5247 186.318 95.058 186.368 95.5938 186.408C95.6981 186.415 95.8237 186.486 95.8996 186.42C95.9802 186.349 95.9019 186.221 95.8996 186.119C95.8616 185.294 95.8166 184.471 95.7739 183.646C95.7953 183.618 95.7929 183.59 95.7692 183.561C95.7502 182.637 95.7194 181.71 95.717 180.785C95.7099 178.178 95.7123 175.57 95.717 172.962C95.717 172.017 95.691 171.068 95.7313 170.123C95.7526 169.594 95.7218 169.703 96.158 169.717C97.0042 169.743 97.8505 169.798 98.6944 169.874C99.1946 169.919 99.6924 169.973 100.19 170.023C100.321 170.037 100.451 170.049 100.617 170.066C100.484 169.663 100.472 169.269 100.468 168.876C100.463 168.475 100.52 168.079 100.6 167.671" fill="white"/>
<path d="M151.932 181.008C152.567 180.173 153.174 179.317 153.75 178.438C153.961 178.118 154.167 177.796 154.383 177.464C153.971 177.167 153.589 176.85 153.354 176.368C153.255 176.558 153.162 176.726 153.077 176.897C152.925 177.198 152.792 177.511 152.624 177.803C152.456 178.094 152.304 178.395 152.124 178.682C151.863 179.097 151.617 179.521 151.346 179.931C150.986 180.484 150.619 181.029 150.225 181.558C150.104 181.721 150.133 181.738 149.955 181.572C149.933 181.553 149.915 181.531 149.898 181.51C149.405 180.932 148.907 180.358 148.423 179.773C148.002 179.261 147.599 178.732 147.186 178.208C146.61 177.475 146.034 176.743 145.463 176.006C145.42 175.951 145.351 175.897 145.356 175.802C145.491 175.759 145.593 175.662 145.709 175.589C146.404 175.143 147.053 174.645 147.622 174.045C148.077 173.564 148.478 173.047 148.746 172.436C149.052 171.739 149.146 171.03 148.959 170.281C148.717 169.316 148.113 168.693 147.207 168.337C146.482 168.05 145.723 167.977 144.951 168.045C144.268 168.107 143.635 168.323 143.052 168.681C142.91 168.768 142.786 168.901 142.649 168.989C142.388 169.16 142.21 169.406 142.03 169.638C141.838 169.885 141.686 170.165 141.563 170.461C141.409 170.836 141.307 171.341 141.272 171.765C141.253 171.983 141.286 172.203 141.267 172.421C141.248 172.637 141.314 172.843 141.347 173.047C141.404 173.401 141.568 173.73 141.701 174.064C141.845 174.429 142.044 174.768 142.239 175.107C142.322 175.252 142.419 175.385 142.502 175.527C142.616 175.717 142.72 175.913 142.881 176.072C142.931 176.12 142.962 176.188 142.995 176.248C143.035 176.316 143.009 176.371 142.938 176.392C142.533 176.52 142.172 176.741 141.812 176.952C141.072 177.385 140.383 177.888 139.783 178.509C139.207 179.104 138.752 179.777 138.436 180.545C138.256 180.982 138.152 181.463 138.142 181.937C138.135 182.273 138.105 182.615 138.185 182.949C138.199 183.011 138.192 183.075 138.195 183.139C138.195 183.188 138.192 183.236 138.211 183.283C138.297 183.509 138.361 183.743 138.439 183.971C138.562 184.324 138.752 184.632 138.97 184.924C139.382 185.469 139.885 185.905 140.52 186.18C140.674 186.246 140.816 186.346 140.978 186.401C141.376 186.533 141.776 186.654 142.196 186.697C142.258 186.704 142.319 186.723 142.381 186.737C142.381 186.759 142.39 186.775 142.414 186.77C142.424 186.77 142.428 186.754 142.438 186.744C142.459 186.744 142.481 186.737 142.502 186.74C143.358 186.825 144.204 186.794 145.045 186.604C145.854 186.422 146.61 186.121 147.305 185.668C147.698 185.412 148.082 185.139 148.435 184.829C148.651 184.639 148.855 184.44 149.064 184.243C149.187 184.127 149.182 184.13 149.279 184.265C149.336 184.345 149.395 184.426 149.466 184.492C149.687 184.699 149.846 184.955 150.033 185.184C150.216 185.41 150.367 185.661 150.524 185.903C150.595 186.014 150.694 186.102 150.747 186.23C150.839 186.446 150.86 186.448 151.105 186.412C151.56 186.346 152.017 186.301 152.475 186.301C153.025 186.301 153.575 186.363 154.12 186.429C154.132 186.429 154.153 186.434 154.158 186.429C154.174 186.408 154.158 186.393 154.139 186.386C153.781 185.979 153.428 185.571 153.067 185.168C152.33 184.336 151.588 183.506 150.849 182.676C150.711 182.522 150.711 182.522 150.849 182.354C151.209 181.906 151.579 181.463 151.927 181.005M143.49 169.944C143.727 169.492 144.083 169.16 144.555 168.958C144.846 168.835 145.15 168.771 145.475 168.783C145.79 168.75 146.084 168.859 146.366 168.977C147.205 169.333 147.601 170.004 147.634 170.897C147.672 171.886 147.312 172.742 146.75 173.531C146.271 174.202 145.664 174.733 144.977 175.176C144.891 175.231 144.846 175.219 144.787 175.143C144.05 174.164 143.467 173.109 143.215 171.895C143.076 171.215 143.168 170.561 143.49 169.944ZM148.551 183.644C148.269 183.921 147.971 184.179 147.653 184.416C147.015 184.888 146.323 185.239 145.539 185.393C145.171 185.464 144.799 185.507 144.36 185.502C143.571 185.538 142.772 185.315 142.085 184.834C140.861 183.98 140.257 182.797 140.371 181.28C140.428 180.519 140.643 179.813 141.056 179.168C141.416 178.609 141.89 178.158 142.412 177.753C142.729 177.506 143.071 177.291 143.407 177.07C143.497 177.011 143.545 177.011 143.611 177.101C143.803 177.362 143.983 177.632 144.183 177.89C144.915 178.841 145.633 179.803 146.368 180.752C146.736 181.226 147.124 181.683 147.504 182.148C147.864 182.589 148.224 183.03 148.587 183.471C148.658 183.556 148.599 183.596 148.549 183.646" fill="white"/>
<path d="M185.705 183.553C185.729 183.511 185.726 183.468 185.7 183.425C185.7 182.944 185.674 182.465 185.665 181.984C185.646 181.038 185.643 180.09 185.648 179.144C185.662 176.579 185.615 174.014 185.691 171.452C185.726 170.231 185.771 169.01 185.857 167.789C185.866 167.666 185.857 167.661 185.729 167.673C185.335 167.709 184.942 167.747 184.548 167.77C183.588 167.83 182.628 167.78 181.673 167.692C181.592 167.685 181.495 167.616 181.433 167.683C181.367 167.751 181.433 167.858 181.424 167.946C181.402 167.974 181.405 168.003 181.429 168.031C181.466 168.702 181.516 169.37 181.538 170.041C181.576 171.262 181.623 172.483 181.618 173.704C181.609 176.337 181.644 178.971 181.599 181.605C181.585 182.361 181.566 183.115 181.54 183.871C181.514 184.675 181.459 185.478 181.417 186.282C181.41 186.434 181.407 186.434 181.559 186.422C181.72 186.407 181.884 186.398 182.043 186.377C182.583 186.313 183.126 186.301 183.669 186.301C184.29 186.301 184.911 186.339 185.527 186.398C185.632 186.407 185.762 186.476 185.833 186.412C185.918 186.334 185.838 186.199 185.833 186.09C185.795 185.244 185.75 184.397 185.707 183.551" fill="white"/>
<path d="M64.4875 166.059C65.578 166.727 66.9955 166.13 67.2018 164.822C67.3748 163.724 66.4266 162.74 65.476 162.821C64.8715 162.776 64.3453 163.06 64.011 163.513C63.8048 163.795 63.6981 164.118 63.6839 164.475C63.6721 164.781 63.7124 165.087 63.8475 165.338C63.9968 165.616 64.1888 165.879 64.4875 166.061" fill="white"/>
<path d="M59.1091 166.23C60.119 166.595 61.3161 166.01 61.4749 164.758C61.61 163.684 60.6997 162.757 59.6994 162.821C59.2561 162.767 58.8555 162.954 58.4975 163.257C58.2344 163.48 57.9807 163.957 57.9594 164.398C57.9404 164.824 58.0021 165.22 58.2676 165.571C58.4904 165.867 58.7559 166.102 59.1115 166.23" fill="white"/>
<path d="M243.065 186.415C243.077 186.427 243.084 186.422 243.094 186.41C243.089 186.406 243.086 186.403 243.082 186.403C243.077 186.403 243.07 186.41 243.065 186.415Z" fill="white"/>
<path d="M243.093 186.412C243.093 186.412 243.1 186.416 243.1 186.419C243.1 186.419 243.1 186.416 243.1 186.412C243.1 186.416 243.093 186.412 243.093 186.412Z" fill="white"/>
<path d="M121.272 184.106C121.298 184.059 121.281 184.011 121.281 183.964C121.281 183.895 121.276 183.826 121.276 183.755L121.293 184.127C121.293 184.127 121.281 184.116 121.272 184.106Z" fill="white"/>
<path d="M121.324 184.782L121.302 184.367C121.298 184.305 121.293 184.251 121.272 184.194C121.283 184.184 121.288 184.182 121.293 184.177L121.324 184.784V184.782Z" fill="white"/>
<path d="M43.8881 130.935H45.136L53.2914 148.572H51.8614L49.6341 143.666H39.3034L37.0761 148.572H35.7241L43.8794 130.935H43.8881ZM49.0968 142.496L44.4947 132.365L39.8668 142.496H49.0968Z" fill="white"/>
<path d="M56.992 131.057H58.2227L70.304 146.301V131.057H71.5519V148.572H70.5813L58.2486 133.007V148.572H56.992V131.057Z" fill="white"/>
<path d="M76.7523 131.057H77.983L90.073 146.301V131.057H91.321V148.572H90.3416L78.009 133.007V148.572H76.7523V131.057Z" fill="white"/>
<path d="M97.994 131.057H96.694V148.572H97.994V131.057Z" fill="white"/>
<path d="M101.877 131.057H103.324L110.18 147.177L117.061 131.057H118.439L110.734 148.702H109.582L101.877 131.057Z" fill="white"/>
<path d="M122.14 131.057H134.602V132.261H123.44V139.143H133.476V140.339H123.44V147.376H134.724V148.572H122.14V131.057Z" fill="white"/>
<path d="M138.901 131.057H146.259C148.408 131.057 150.141 131.733 151.19 132.782C152.013 133.605 152.516 134.784 152.516 136.032V136.084C152.516 139.013 150.341 140.686 147.385 141.084L153.166 148.564H151.519L145.938 141.31H140.209V148.564H138.909V131.048L138.901 131.057ZM146.111 140.14C149.041 140.14 151.216 138.666 151.216 136.136V136.084C151.216 133.735 149.361 132.253 146.189 132.253H140.209V140.131H146.111V140.14Z" fill="white"/>
<path d="M155.862 146.024L156.711 145.044C158.635 146.821 160.412 147.644 162.994 147.644C165.577 147.644 167.423 146.171 167.423 144.169V144.117C167.423 142.262 166.444 141.188 162.466 140.39C158.262 139.541 156.564 138.111 156.564 135.459V135.407C156.564 132.807 158.938 130.805 162.197 130.805C164.754 130.805 166.426 131.507 168.203 132.928L167.38 133.951C165.724 132.521 164.078 131.975 162.154 131.975C159.58 131.975 157.872 133.448 157.872 135.277V135.329C157.872 137.184 158.826 138.302 162.977 139.16C167.033 139.983 168.732 141.439 168.732 143.987V144.039C168.732 146.864 166.305 148.814 162.925 148.814C160.126 148.814 157.968 147.887 155.87 146.015" fill="white"/>
<path d="M179.279 130.935H180.527L188.682 148.572H187.252L185.025 143.666H174.694L172.467 148.572H171.115L179.27 130.935H179.279ZM184.488 142.496L179.886 132.365L175.258 142.496H184.488Z" fill="white"/>
<path d="M192.392 131.057H199.75C201.899 131.057 203.624 131.733 204.681 132.782C205.505 133.605 206.007 134.784 206.007 136.032V136.084C206.007 139.013 203.832 140.686 200.877 141.084L206.657 148.564H205.011L199.429 141.31H193.701V148.564H192.401V131.048L192.392 131.057ZM199.602 140.14C202.532 140.14 204.707 138.666 204.707 136.136V136.084C204.707 133.735 202.853 132.253 199.681 132.253H193.701V140.131H199.602V140.14Z" fill="white"/>
<path d="M215.557 141.647L208.052 131.057H209.673L216.233 140.469L222.811 131.057H224.363L216.857 141.621V148.572H215.557V141.647Z" fill="white"/>
<path d="M102.405 2.18372L80.938 32.2918C79.3953 34.6058 77.6966 36.7724 75.9979 39.2425C77.2373 38.6271 81.5619 37.5438 85.1066 37.5438C102.553 37.5438 121.394 50.9771 121.394 76.1452C121.394 101.313 102.249 118.612 78.7713 118.612C64.7227 118.612 52.364 113.204 45.11 103.792C38.1594 95.9139 35.5333 84.7945 35.5333 76.1539C35.5333 64.1072 40.4733 54.3831 45.8813 46.0458L75.842 2.19238H102.405V2.18372ZM58.2399 78.1559C58.2399 90.3585 67.5047 98.3839 78.0087 98.3839C89.44 98.3839 98.3927 89.5785 98.3927 78.1559C98.3927 66.7332 89.7433 57.7718 78.1646 57.7718C67.9726 57.7718 58.2486 65.4938 58.2486 77.9999V78.1559H58.2399Z" fill="#E42620"/>
<path d="M136.474 25.2626L137.012 22.3593C139.282 22.8186 141.163 22.6973 143.113 21.5966C144.812 20.6346 145.436 19.222 144.777 18.0606L144.751 18.0173C144.127 16.9166 143.139 16.6306 139.863 17.6273C136.084 18.728 133.623 18.7713 132.002 15.9026L131.976 15.8593C130.451 13.1726 131.638 10.0526 134.75 8.2846C137.055 6.97593 139.213 6.6726 141.553 7.0366L141.258 9.95727C139.23 9.7146 137.523 9.93994 136.093 10.7546C134.481 11.6646 133.996 13.0079 134.594 14.0566L134.62 14.0999C135.304 15.3046 136.327 15.4346 139.75 14.4466C143.52 13.4326 145.878 13.5799 147.36 16.1973L147.386 16.2406C149.058 19.196 147.732 22.2206 144.439 24.084C142.021 25.4533 139.326 25.9126 136.483 25.28" fill="#0098CB"/>
<path d="M149.454 2.65104L146.409 3.51074L151.302 20.8339L154.346 19.9742L149.454 2.65104Z" fill="#0098CB"/>
<path d="M156.685 0.73584L159.614 0.770507L169.113 13.3199L169.252 0.883174L172.363 0.91784L172.163 18.9099L169.511 18.8752L159.735 5.96185L159.588 18.7625L156.485 18.7279L156.685 0.73584Z" fill="#0098CB"/>
<path d="M175.656 10.6251L175.674 10.5817C177.658 5.86704 182.815 3.48371 187.816 5.58971C190.901 6.88105 192.296 8.72705 193.25 10.9111L190.468 12.2804C189.636 10.4777 188.578 9.09105 186.654 8.27638C183.526 6.95905 180.12 8.57105 178.75 11.8124L178.733 11.8557C177.372 15.1057 178.56 18.7024 181.74 20.0371C183.751 20.8864 185.424 20.6351 187.4 19.9071L188.474 22.5937C186.022 23.7117 183.586 23.9977 180.51 22.7064C175.674 20.6784 173.654 15.3917 175.656 10.6251Z" fill="#0098CB"/>
<path d="M199.767 12.7043L209.396 21.943L207.446 23.9797L200.088 16.9337L196.855 20.3137L203.364 26.5624L201.388 28.6164L194.879 22.3764L191.551 25.843L198.996 32.9844L197.037 35.021L187.304 25.6957L199.767 12.7043Z" fill="#0098CB"/>
<path d="M214.777 37.4649L212.697 34.8216L214.821 33.2096L218.114 37.1096L218.955 39.1203L202.219 46.097L201.015 43.2023L214.777 37.4649Z" fill="#0098CB"/>
<path d="M212.619 56.5058C211.285 55.6738 210.418 54.3825 210.175 52.5538C209.673 48.7838 211.527 45.9412 214.994 45.4818H215.046C218.539 45.0138 221.572 47.3538 222.101 51.3058C222.395 53.5505 221.979 55.0585 220.853 56.5318C219.726 58.0052 217.845 59.1058 214.361 59.5738H214.309C208.572 60.3452 204.221 58.0138 203.58 53.2212C203.251 50.7512 203.918 48.9225 204.958 47.2238L207.584 48.6105C206.639 50.1098 206.241 51.3838 206.44 52.9092C206.856 56.0465 210.271 56.7312 212.628 56.4972M216.563 55.8472H216.615C218.478 55.5958 219.683 53.9578 219.379 51.6872C219.085 49.4425 217.455 48.3418 215.592 48.5845H215.54C213.703 48.8358 212.567 50.4132 212.862 52.6578C213.165 54.9285 214.821 56.0812 216.554 55.8472" fill="#0098CB"/>
<path d="M206.042 62.8156C207.645 61.741 209.647 61.299 213.2 62.0096H213.252C218.625 63.0843 222.352 66.499 221.356 71.491C220.896 73.7877 219.856 75.2003 218.314 76.5003L216.225 74.351C217.456 73.311 218.236 72.4183 218.548 70.8237C219.163 67.721 216.173 66.031 213.764 65.4676C214.648 66.7157 215.098 68.1457 214.717 70.061C214.041 73.493 211.475 75.8157 207.948 75.1137H207.896C204.369 74.403 202.462 71.0663 203.19 67.357C203.623 65.1643 204.612 63.7603 206.033 62.807M208.381 71.9763H208.434C210.228 72.3403 211.788 71.205 212.23 68.995C212.663 66.8023 211.528 65.1297 209.838 64.8003H209.785C207.965 64.4277 206.345 65.6063 205.911 67.825C205.469 70.0437 206.57 71.6297 208.39 71.985" fill="#0098CB"/>
<path d="M204.516 74.6194L205.539 77.4534C203.667 78.0427 202.193 78.9527 201.37 80.4001C200.304 82.2721 200.668 84.1181 202.297 85.0454L202.341 85.0714C203.944 85.9901 205.695 85.2101 206.778 83.3121C207.428 82.1767 207.653 81.0587 207.731 80.0361L209.768 79.0134L217.169 83.8321L211.831 93.1834L209.378 91.7794L213.365 84.7941L209.863 82.4714C209.707 83.3641 209.491 84.1527 208.893 85.2014C207.159 88.2347 204.178 89.7254 200.867 87.8447L200.824 87.8187C197.635 85.9987 196.872 82.4541 198.848 78.9961C200.226 76.5867 202.228 75.3041 204.516 74.6281" fill="#0098CB"/>
<path d="M191.733 87.142C176.315 101.919 151.762 101.737 136.587 86.5614C121.411 71.386 121.229 46.8333 136.006 31.4153L121.749 17.1586C99.112 40.4373 99.3027 77.782 122.33 100.809C145.366 123.837 182.702 124.027 205.981 101.39L191.724 87.1334L191.733 87.142Z" fill="#0098CB"/>
</svg>